<svg xmlns="http://www.w3.org/2000/svg" viewBox="0 0 512 512">
  <circle cx="256" cy="256" r="256" fill="#515262"/>
  <circle cx="256" cy="256" r="150.069" fill="#eff2fa"/>
  <path d="M256 88.276c92.631 0 167.724 75.093 167.724 167.724S348.631 423.724 256 423.724 88.276 348.631 88.276 256 163.369 88.276 256 88.276m0-17.655c-102.219 0-185.379 83.16-185.379 185.379S153.781 441.379 256 441.379 441.379 358.219 441.379 256 358.219 70.621 256 70.621z" fill="#464655"/>
  <g fill="#eff2fa">
    <path d="M256 0c-15.06 0-29.791 1.375-44.138 3.87v40.705c0 6.702 5.931 11.938 12.551 10.889 10.295-1.632 20.84-2.498 31.587-2.498s21.292.866 31.587 2.498c6.62 1.049 12.551-4.186 12.551-10.889V3.87C285.791 1.375 271.06 0 256 0zM211.862 467.425v40.705C226.209 510.625 240.94 512 256 512c15.06 0 29.791-1.375 44.138-3.87v-40.705c0-6.702-5.931-11.938-12.551-10.889-10.295 1.632-20.84 2.498-31.587 2.498s-21.292-.866-31.587-2.498c-6.62-1.049-12.551 4.187-12.551 10.889zM512 256c0-15.06-1.375-29.791-3.87-44.138h-40.705c-6.702 0-11.938 5.931-10.889 12.551 1.632 10.295 2.498 20.84 2.498 31.587s-.866 21.292-2.498 31.587c-1.049 6.62 4.186 12.551 10.889 12.551h40.705C510.625 285.791 512 271.06 512 256zM44.575 211.862H3.87C1.375 226.209 0 240.94 0 256c0 15.06 1.375 29.791 3.87 44.138h40.705c6.702 0 11.938-5.931 10.889-12.551-1.632-10.295-2.498-20.84-2.498-31.587s.866-21.292 2.498-31.587c1.049-6.62-4.187-12.551-10.889-12.551zM437.02 74.98c-10.649-10.649-22.038-20.093-33.946-28.474L374.29 75.289c-4.739 4.739-4.247 12.636 1.175 16.574a201.589 201.589 0 0 1 24.102 20.569 201.51 201.51 0 0 1 20.569 24.102c3.938 5.422 11.834 5.914 16.574 1.175l28.783-28.783c-8.381-11.908-17.824-23.296-28.473-33.946zM75.289 374.29l-28.783 28.783c8.381 11.908 17.825 23.297 28.474 33.946s22.038 20.093 33.946 28.474l28.783-28.783c4.739-4.739 4.247-12.636-1.175-16.574a201.589 201.589 0 0 1-24.102-20.569 201.51 201.51 0 0 1-20.569-24.102c-3.938-5.422-11.834-5.915-16.574-1.175zM437.02 437.02c10.649-10.649 20.093-22.038 28.474-33.946L436.71 374.29c-4.739-4.739-12.636-4.247-16.574 1.175a201.589 201.589 0 0 1-20.569 24.102 201.51 201.51 0 0 1-24.102 20.569c-5.422 3.938-5.914 11.834-1.175 16.574l28.783 28.783c11.909-8.381 23.297-17.824 33.947-28.473zM137.71 75.289l-28.783-28.782C97.018 54.888 85.63 64.331 74.98 74.98s-20.093 22.038-28.473 33.946l28.782 28.783c4.739 4.739 12.636 4.247 16.574-1.175a201.589 201.589 0 0 1 20.569-24.102 201.51 201.51 0 0 1 24.102-20.569c5.424-3.938 5.916-11.834 1.176-16.574z"/>
    <circle cx="52.105" cy="340.458" r="13.241"/>
    <circle cx="459.895" cy="171.542" r="13.241"/>
    <circle cx="171.542" cy="52.105" r="13.241"/>
    <circle cx="340.458" cy="459.895" r="13.241"/>
    <circle cx="52.105" cy="171.542" r="13.241"/>
    <circle cx="459.895" cy="340.458" r="13.241"/>
    <circle cx="340.458" cy="52.105" r="13.241"/>
    <circle cx="171.542" cy="459.895" r="13.241"/>
    <path d="M404.12 145l-15.311 8.84c8.96 11.63 16.511 24.388 22.2 38.15l15.389-8.885c-5.865-13.659-13.457-26.366-22.278-38.105zM320.012 100.99c13.761 5.689 26.519 13.24 38.15 22.2l8.84-15.311c-11.74-8.821-24.446-16.413-38.104-22.278l-8.886 15.389zM233.931 72.061v17.833c7.24-.954 14.569-1.618 22.069-1.618 7.5 0 14.829.663 22.069 1.617V72.061c-7.251-.866-14.589-1.44-22.069-1.44s-14.818.573-22.069 1.44zM423.724 256c0 7.5-.663 14.829-1.617 22.069h17.832c.866-7.251 1.44-14.589 1.44-22.069s-.575-14.818-1.44-22.069h-17.833c.955 7.24 1.618 14.569 1.618 22.069zM88.276 256c0-7.5.663-14.829 1.617-22.069H72.061c-.866 7.251-1.44 14.589-1.44 22.069s.575 14.818 1.44 22.069h17.832c-.954-7.24-1.617-14.569-1.617-22.069zM153.838 123.191c11.63-8.96 24.388-16.511 38.15-22.2l-8.885-15.389c-13.658 5.866-26.365 13.458-38.104 22.278l8.839 15.311zM426.399 328.896l-15.389-8.885c-5.689 13.761-13.24 26.518-22.2 38.148l15.31 8.84c8.821-11.738 16.413-24.445 22.279-38.103zM278.069 439.939v-17.833c-7.24.954-14.569 1.617-22.069 1.617-7.5 0-14.829-.663-22.069-1.617v17.833c7.251.865 14.589 1.44 22.069 1.44s14.818-.575 22.069-1.44zM358.161 388.809c-11.63 8.96-24.388 16.511-38.15 22.2l8.885 15.389c13.657-5.866 26.365-13.458 38.104-22.279l-8.839-15.31zM191.988 411.009c-13.761-5.689-26.519-13.24-38.15-22.2l-8.84 15.31c11.74 8.821 24.446 16.413 38.104 22.279l8.886-15.389zM123.19 358.161c-8.96-11.63-16.51-24.387-22.2-38.148l-15.389 8.885c5.865 13.658 13.458 26.364 22.278 38.103l15.311-8.84zM85.601 183.103l15.389 8.885c5.689-13.761 13.24-26.519 22.2-38.15l-15.311-8.84c-8.82 11.741-16.412 24.448-22.278 38.105z"/>
  </g>
  <path d="M259.683 155.533a7.035 7.035 0 0 0-7.368 0c-17.436 10.636-90.824 58.684-90.824 113.844 0 28.669 23.203 51.908 51.827 51.908 9.368 0 18.15-2.496 25.727-6.856 2.173-1.25 4.713.96 3.861 3.335a115.48 115.48 0 0 1-16.876 31.026c-2.714 3.558-.107 8.718 4.339 8.718h51.808c4.449 0 7.05-5.162 4.334-8.722a115.453 115.453 0 0 1-16.735-30.643c-.857-2.361 1.647-4.575 3.828-3.36a51.35 51.35 0 0 0 25.076 6.503c28.623 0 51.827-23.24 51.827-51.908.001-55.161-73.388-103.209-90.824-113.845z" fill="#515262"/>
</svg>
